<?xml version="1.0" standalone="no"?>
<!DOCTYPE svg PUBLIC "-//W3C//DTD SVG 1.1//EN" "http://www.w3.org/Graphics/SVG/1.1/DTD/svg11.dtd"><svg xmlns="http://www.w3.org/2000/svg"  width="1707" height="1707" fill="#ffffff" stroke="#ffffff"><path  stroke-width="1" d="M816.56, 90.418L816.559, 90.418L819.218, 88.444L821.627, 86.834L822.659, 86.215L823.536, 85.748L824.224, 85.453L824.694, 85.35L825.092, 85.477L825.574, 85.842L826.124, 86.419L826.728, 87.184L828.032, 89.176L829.362, 91.618L831.63, 95.951L834.252, 100.274L837.259, 104.628L840.681, 109.055L844.546, 113.594L848.884, 118.286L853.726, 123.172L859.101, 128.292L862.672, 131.586L866.061, 134.72L869.274, 137.699L872.314, 140.528L875.185, 143.212L877.894, 145.756L880.442, 148.164L882.837, 150.442L887.179, 154.627L890.956, 158.349L894.204, 161.649L896.958, 164.566L899.255, 167.138L901.129, 169.406L902.616, 171.41L903.753, 173.188L904.576, 174.78L905.119, 176.225L905.418, 177.563L905.51, 178.834L905.4, 179.965L905.029, 181.108L904.336, 182.335L903.259, 183.719L901.74, 185.335L899.715, 187.255L897.125, 189.554L895.599, 190.868L893.908, 192.304L890.963, 194.763L888.224, 197.096L885.678, 199.315L883.316, 201.431L879.1, 205.404L875.488, 209.108L872.395, 212.636L869.734, 216.084L867.421, 219.544L865.369, 223.11L864.024, 225.692L862.962, 227.963L862.141, 230.112L861.518, 232.329L861.052, 234.801L860.699, 237.719L860.419, 241.272L860.292, 243.345L860.168, 245.648L859.803, 251.268L859.584, 253.775L859.351, 256L859.112, 257.88L858.874, 259.356L858.645, 260.366L858.434, 260.85L857.964, 261.05L857.09, 261.155L855.869, 261.174L854.358, 261.113L852.612, 260.983L850.689, 260.79L846.532, 260.251L842.337, 259.562L838.555, 258.788L836.96, 258.39L835.636, 257.995L834.641, 257.613L834.03, 257.25L833.643, 256.797L833.288, 256.154L832.695, 254.383L832.304, 252.112L832.162, 249.515L831.824, 244.467L830.837, 239.088L829.237, 233.472L827.061, 227.711L824.348, 221.901L821.135, 216.134L817.459, 210.505L813.358, 205.107L811.684, 203.172L809.616, 200.829L807.235, 198.17L804.623, 195.288L799.031, 189.222L796.212, 186.223L793.488, 183.369L790.225, 179.976L787.323, 176.93L784.765, 174.202L782.529, 171.763L780.598, 169.585L778.951, 167.639L777.57, 165.898L776.435, 164.332L775.526, 162.913L774.824, 161.612L773.965, 159.252L773.704, 157.023L773.884, 154.697L774.149, 153.371L774.626, 151.644L775.291, 149.589L776.118, 147.279L778.16, 142.188L780.552, 136.96L784.101, 130.13L788.016, 123.48L792.25, 117.064L796.756, 110.938L801.486, 105.155L806.395, 99.771L811.435, 94.841L816.56, 90.418"/><path   stroke-width="1" d="M717.473, 119.89L720.215, 118.097L722.731, 116.719L725.005, 115.76L727.025, 115.223L728.776, 115.11L730.244, 115.427L731.416, 116.174L732.276, 117.356L732.591, 118.008L733.116, 119.123L733.826, 120.638L734.694, 122.491L735.692, 124.618L736.796, 126.958L739.211, 132.026L742.085, 137.815L745.302, 143.505L749.003, 149.286L751.079, 152.27L753.33, 155.347L755.774, 158.541L758.427, 161.877L761.308, 165.376L764.434, 169.064L767.824, 172.964L771.495, 177.099L775.465, 181.493L779.752, 186.17L786.298, 193.375L792.239, 200.101L797.588, 206.37L802.357, 212.204L806.556, 217.623L810.199, 222.65L813.296, 227.306L815.859, 231.611L817.901, 235.589L819.432, 239.26L820.464, 242.646L821.01, 245.769L821.081, 248.649L820.688, 251.308L819.844, 253.768L818.56, 256.05L815.36, 260.718L801.49, 261.518L795.489, 262.055L789.687, 262.818L787.049, 263.26L784.686, 263.731L782.674, 264.22L781.086, 264.718L778.063, 265.641L775.427, 266.077L773.078, 265.975L770.917, 265.285L768.844, 263.958L766.758, 261.943L764.56, 259.19L763.387, 257.522L762.149, 255.65L759.292, 251.353L756.394, 247.434L753.264, 243.692L749.713, 239.93L747.719, 237.98L745.549, 235.949L743.178, 233.815L740.582, 231.552L737.737, 229.134L734.621, 226.538L731.208, 223.738L727.475, 220.71L720.927, 215.336L714.55, 209.873L708.438, 204.406L702.687, 199.023L697.393, 193.808L692.65, 188.847L690.515, 186.49L688.554, 184.228L686.778, 182.073L685.2, 180.035L683.748, 178.303L682.483, 176.985L681.543, 176.191L681.238, 176.026L681.066, 176.034L678.723, 179.11L676.496, 181.986L674.384, 184.662L672.388, 187.139L670.506, 189.416L668.738, 191.494L667.085, 193.374L665.547, 195.055L664.122, 196.537L662.812, 197.821L661.615, 198.907L660.532, 199.796L659.561, 200.486L658.704, 200.979L657.96, 201.275L657.329, 201.373L656.9, 201.265L656.563, 200.952L656.154, 199.781L656.081, 197.997L656.328, 195.738L656.875, 193.142L657.703, 190.346L658.794, 187.487L660.129, 184.703L665.322, 175.617L671.246, 166.624L677.816, 157.819L684.951, 149.296L692.566, 141.147L700.581, 133.468L708.91, 126.351L717.473, 119.89"/><path   stroke-width="1" d="M638.125, 139.627L640.169, 137.731L641.976, 136.16L642.731, 135.551L643.357, 135.089L643.83, 134.796L644.126, 134.693L644.35, 134.844L644.616, 135.279L644.916, 135.966L645.243, 136.877L645.945, 139.25L646.66, 142.161L647.093, 143.85L647.677, 145.772L649.193, 150.046L651.01, 154.445L652.927, 158.431L657.595, 167.233L653.461, 172.967L651.602, 175.677L649.994, 178.297L648.585, 180.961L647.326, 183.803L646.168, 186.957L645.059, 190.558L643.95, 194.741L643.381, 197.092L642.792, 199.639L642.126, 202.382L641.473, 204.923L640.166, 209.483L638.797, 213.479L637.291, 217.076L635.572, 220.435L633.565, 223.719L631.196, 227.09L628.389, 230.712L624.488, 235.907L620.841, 241.469L617.457, 247.372L614.341, 253.585L611.502, 260.08L608.947, 266.829L606.683, 273.802L604.718, 280.972L603.06, 288.308L601.715, 295.783L600.691, 303.368L599.997, 311.034L599.638, 318.752L599.622, 326.494L599.957, 334.23L600.651, 341.933L600.86, 343.676L601.037, 345.212L601.286, 347.713L601.389, 349.533L601.334, 350.768L601.11, 351.516L600.707, 351.873L600.113, 351.936L599.317, 351.802L598.661, 351.549L597.992, 351.04L597.31, 350.274L596.617, 349.254L595.91, 347.977L595.191, 346.445L594.46, 344.659L593.716, 342.617L592.96, 340.32L592.191, 337.769L591.409, 334.964L590.616, 331.905L589.809, 328.591L588.99, 325.024L588.159, 321.203L587.315, 317.129L586.746, 314.361L586.236, 311.785L585.381, 307.062L584.727, 302.667L584.248, 298.308L583.918, 293.693L583.714, 288.529L583.651, 285.65L583.61, 282.525L583.588, 279.116L583.581, 275.387L583.563, 271.497L583.561, 268.001L583.577, 264.86L583.617, 262.033L583.682, 259.48L583.776, 257.161L584.065, 253.066L584.51, 249.428L585.138, 245.925L585.975, 242.239L587.048, 238.047L588.808, 232.017L590.96, 225.586L593.46, 218.835L596.266, 211.848L599.335, 204.707L602.623, 197.494L609.685, 183.186L613.374, 176.255L617.111, 169.584L620.852, 163.254L624.555, 157.349L628.177, 151.951L631.674, 147.143L635.005, 143.008L636.594, 141.218L638.125, 139.627"/><path   stroke-width="1" d="M1128.887, 142.028L1132.319, 141.474L1135.322, 141.023L1137.914, 140.691L1140.11, 140.492L1141.927, 140.443L1143.379, 140.558L1144.484, 140.854L1145.257, 141.344L1145.715, 142.046L1145.872, 142.975L1145.746, 144.145L1145.353, 145.573L1144.708, 147.273L1143.827, 149.261L1142.727, 151.553L1141.423, 154.164L1139.38, 158.456L1137.604, 162.691L1136.092, 166.883L1134.847, 171.046L1133.867, 175.195L1133.153, 179.345L1132.704, 183.509L1132.521, 187.703L1132.604, 191.941L1132.952, 196.237L1133.566, 200.605L1134.446, 205.061L1135.592, 209.618L1137.003, 214.292L1138.68, 219.095L1140.623, 224.044L1143.092, 230.329L1145.118, 236.317L1146.735, 242.211L1147.975, 248.215L1148.871, 254.531L1149.456, 261.363L1149.642, 265.036L1149.763, 268.914L1149.823, 273.023L1149.825, 277.387L1149.616, 286.594L1149.102, 295.605L1148.303, 304.264L1147.24, 312.411L1146.617, 316.243L1145.934, 319.889L1145.196, 323.328L1144.404, 326.54L1143.562, 329.507L1142.672, 332.207L1141.735, 334.622L1140.756, 336.732L1139.562, 338.906L1138.002, 341.449L1136.113, 344.316L1133.928, 347.464L1131.483, 350.847L1128.812, 354.422L1125.952, 358.145L1122.936, 361.971L1116.578, 369.757L1110.019, 377.428L1103.537, 384.63L1100.413, 387.945L1097.414, 391.01L1095.082, 393.317L1092.886, 395.438L1090.823, 397.373L1088.892, 399.126L1087.09, 400.696L1085.417, 402.086L1083.869, 403.296L1082.445, 404.329L1081.143, 405.185L1079.96, 405.865L1078.896, 406.372L1077.948, 406.706L1077.114, 406.87L1076.392, 406.863L1075.277, 406.346L1075.242, 406.022L1075.425, 405.377L1075.804, 404.454L1076.36, 403.295L1077.072, 401.943L1077.921, 400.438L1079.944, 397.144L1085.754, 387.278L1090.865, 377.328L1095.254, 367.359L1098.898, 357.437L1101.772, 347.627L1102.914, 342.785L1103.855, 337.995L1104.592, 333.267L1105.122, 328.607L1105.442, 324.025L1105.549, 319.529L1105.343, 312.567L1104.737, 305.224L1103.75, 297.558L1102.403, 289.629L1100.712, 281.497L1098.699, 273.219L1096.382, 264.856L1093.78, 256.467L1090.912, 248.11L1087.798, 239.845L1084.457, 231.732L1080.907, 223.829L1077.168, 216.196L1073.259, 208.891L1069.199, 201.974L1065.008, 195.505L1056.073, 182.302L1061.807, 176.434L1065.142, 173.169L1068.639, 170.028L1076.077, 164.138L1084.04, 158.808L1092.447, 154.08L1101.216, 149.996L1110.267, 146.597L1119.518, 143.927L1124.193, 142.879L1128.887, 142.028"/><path   stroke-width="1" d="M1029.134, 154.297L1029.778, 153.774L1030.585, 153.536L1031.666, 153.633L1033.135, 154.113L1035.104, 155.025L1036.311, 155.657L1037.686, 156.416L1039.241, 157.306L1040.992, 158.335L1042.953, 159.508L1045.137, 160.831L1047.802, 162.443L1050.157, 163.889L1052.213, 165.181L1053.987, 166.336L1055.491, 167.368L1056.739, 168.29L1057.745, 169.118L1058.523, 169.866L1059.087, 170.548L1059.451, 171.179L1059.634, 172.346L1059.182, 173.481L1058.207, 174.7L1056.781, 176.083L1055.35, 176.907L1053.835, 177.141L1052.155, 176.751L1050.233, 175.705L1049.155, 174.925L1047.986, 173.969L1046.717, 172.833L1045.336, 171.512L1043.836, 170.002L1042.204, 168.3L1033.669, 159.364L1033.535, 167.633L1033.464, 171.089L1033.243, 174.078L1032.86, 176.632L1032.301, 178.785L1031.555, 180.569L1030.609, 182.017L1029.451, 183.162L1028.067, 184.036L1027.066, 184.481L1026.164, 184.676L1025.365, 184.639L1024.671, 184.384L1024.084, 183.928L1023.608, 183.288L1023, 181.519L1022.866, 179.206L1023.229, 176.478L1024.111, 173.466L1025.534, 170.3L1026.57, 168.006L1027.418, 165.349L1027.991, 162.667L1028.201, 160.298L1028.272, 158.235L1028.468, 156.397L1028.763, 155.01L1028.941, 154.555L1029.134, 154.297"/><path   stroke-width="1" d="M933.916, 167.5L935.21, 165.981L936.4, 164.677L937.497, 163.591L938.512, 162.724L939.457, 162.079L940.343, 161.658L941.182, 161.464L941.984, 161.498L942.761, 161.764L943.524, 162.264L944.285, 163L945.055, 163.974L945.846, 165.188L946.668, 166.646L947.533, 168.349L948.452, 170.3L949.641, 173.035L950.897, 176.1L952.2, 179.44L953.532, 182.996L956.211, 190.533L958.787, 198.256L961.113, 205.709L962.137, 209.193L963.042, 212.44L963.812, 215.391L964.428, 217.991L964.87, 220.183L965.122, 221.91L965.302, 225.088L965.139, 228.028L964.625, 230.743L963.755, 233.246L962.522, 235.548L960.921, 237.663L958.944, 239.603L956.586, 241.38L955.977, 241.814L955.207, 242.41L954.288, 243.158L953.232, 244.046L950.749, 246.203L947.852, 248.799L944.629, 251.751L941.171, 254.977L933.916, 261.918L916.179, 279.121L905.776, 274.32L903.546, 273.306L901.109, 272.28L895.941, 270.303L890.924, 268.601L888.674, 267.919L886.706, 267.386L882.642, 266.263L879.126, 265.075L876.115, 263.797L873.571, 262.402L871.451, 260.862L869.716, 259.153L868.324, 257.246L867.236, 255.116L866.538, 253.065L866.091, 250.87L865.89, 248.546L865.929, 246.104L866.204, 243.559L866.708, 240.922L867.437, 238.208L868.386, 235.429L869.548, 232.599L870.92, 229.73L872.495, 226.836L874.268, 223.929L878.389, 218.131L883.239, 212.441L884.176, 211.473L885.277, 210.377L887.917, 207.851L891.048, 204.966L894.558, 201.823L898.337, 198.523L902.274, 195.169L906.258, 191.862L910.178, 188.704L917.825, 182.371L921.463, 179.24L924.848, 176.251L927.882, 173.493L930.47, 171.056L932.513, 169.029L933.301, 168.197L933.916, 167.5"/><path   stroke-width="1" d="M457.023, 168.433L457.438, 167.768L458.04, 167.216L458.767, 166.839L459.556, 166.699L460.563, 166.949L462.055, 167.677L463.988, 168.846L466.32, 170.421L469.006, 172.366L472.004, 174.646L475.27, 177.226L478.76, 180.069L482.432, 183.14L486.241, 186.404L494.101, 193.367L501.991, 200.675L509.566, 208.041L513.8, 212.312L518.212, 216.881L522.747, 221.682L527.349, 226.651L536.529, 236.83L540.996, 241.911L545.306, 246.898L549.404, 251.728L553.234, 256.335L556.739, 260.654L559.863, 264.62L562.552, 268.169L564.749, 271.234L565.646, 272.565L566.398, 273.75L567, 274.783L567.444, 275.654L568.436, 278.161L569.178, 281.105L569.62, 284.224L569.711, 287.256L569.807, 290.009L570.078, 292.674L570.499, 294.964L570.758, 295.878L571.045, 296.591L571.189, 296.935L571.368, 297.507L571.58, 298.29L571.822, 299.27L572.385, 301.758L573.035, 304.847L573.75, 308.412L574.507, 312.33L576.063, 320.73L577.524, 329.054L578.164, 332.878L578.715, 336.312L579.154, 339.232L579.459, 341.514L579.555, 342.377L579.609, 343.034L579.618, 343.469L579.58, 343.668L579.368, 343.74L578.915, 343.756L578.238, 343.721L577.351, 343.637L575.007, 343.333L572.001, 342.869L568.454, 342.269L564.485, 341.555L560.214, 340.752L555.758, 339.883L546.775, 338.042L542.486, 337.118L538.49, 336.222L534.908, 335.378L531.859, 334.611L529.462, 333.943L528.545, 333.653L527.836, 333.398L526.117, 332.723L524.108, 331.825L521.884, 330.742L519.518, 329.514L514.652, 326.778L510.1, 323.93L506.108, 321.39L504.333, 320.28L502.765, 319.312L501.447, 318.513L500.423, 317.91L499.736, 317.528L499.431, 317.395L499.313, 317.498L499.166, 317.791L498.814, 318.862L498.437, 320.433L498.097, 322.33L497.861, 323.503L497.563, 324.888L496.83, 328.097L495.996, 331.556L495.163, 334.865L494.595, 337.163L494.19, 339.022L493.952, 340.541L493.88, 341.817L494.245, 344.036L494.684, 345.176L495.297, 346.468L496.172, 348.342L496.801, 350.158L497.186, 351.909L497.33, 353.586L497.236, 355.182L496.909, 356.689L496.35, 358.099L495.563, 359.404L495.005, 360.114L494.496, 360.508L493.988, 360.534L493.43, 360.137L492.771, 359.266L491.963, 357.866L490.955, 355.885L489.696, 353.269L488.254, 349.986L486.884, 346.262L485.59, 342.137L484.378, 337.647L483.254, 332.832L482.222, 327.729L481.289, 322.376L480.461, 316.812L479.136, 305.201L478.294, 293.201L477.976, 281.117L478.227, 269.253L478.531, 257.798L478.231, 246.779L477.313, 236.108L475.76, 225.694L473.557, 215.449L470.688, 205.284L467.137, 195.109L462.89, 184.836L461.588, 181.834L460.398, 178.972L459.346, 176.317L458.457, 173.934L457.754, 171.888L457.265, 170.246L457.013, 169.072L457.023, 168.433"/><path   stroke-width="1" d="M975.124, 172.3L975.124, 172.301L976.306, 171.366L977.583, 170.875L978.996, 170.847L980.591, 171.3L982.412, 172.253L984.5, 173.725L986.902, 175.735L989.659, 178.301L993.136, 181.738L996.246, 185.117L998.959, 188.393L1001.245, 191.521L1003.075, 194.454L1004.418, 197.149L1005.246, 199.559L1005.529, 201.639L1005.273, 203.608L1004.379, 205.29L1003.634, 206.105L1002.66, 206.947L1001.433, 207.848L999.929, 208.841L998.595, 209.703L997.03, 210.76L993.444, 213.292L989.633, 216.098L986.059, 218.843L982.69, 221.383L979.608, 223.46L978.28, 224.259L977.151, 224.862L976.263, 225.244L975.657, 225.377L974.814, 225.072L973.986, 224.164L973.177, 222.663L972.39, 220.576L971.628, 217.915L970.894, 214.688L970.191, 210.904L969.523, 206.574L969.227, 203.659L969.133, 200.579L969.506, 194.322L969.951, 191.34L970.554, 188.589L971.304, 186.166L972.19, 184.169L972.68, 182.831L973.107, 181.168L973.409, 179.406L973.524, 177.768L973.643, 176.145L973.974, 174.584L974.48, 173.248L975.124, 172.3"/><path   stroke-width="1" d="M1031.801, 197.905L1033.842, 196.051L1035.752, 194.402L1037.512, 192.975L1039.103, 191.787L1040.506, 190.856L1041.703, 190.198L1042.675, 189.831L1043.403, 189.771L1044.198, 190.078L1045.216, 190.826L1046.435, 191.982L1047.831, 193.511L1049.381, 195.38L1051.062, 197.556L1052.85, 200.004L1054.723, 202.69L1058.627, 208.643L1062.589, 215.144L1066.423, 221.924L1069.943, 228.711L1072.862, 234.858L1075.698, 241.428L1078.414, 248.321L1080.978, 255.433L1083.354, 262.664L1085.508, 269.913L1087.406, 277.077L1089.013, 284.055L1090.176, 290.55L1090.593, 294.077L1090.913, 297.908L1091.146, 302.133L1091.301, 306.841L1091.386, 312.121L1091.413, 318.062L1091.43, 321.544L1091.429, 324.707L1091.409, 327.579L1091.367, 330.188L1091.302, 332.561L1091.211, 334.727L1090.946, 338.55L1090.556, 341.878L1090.025, 344.936L1089.338, 347.947L1088.479, 351.135L1086.602, 356.977L1084.284, 362.984L1081.545, 369.13L1078.402, 375.388L1074.875, 381.733L1070.982, 388.138L1066.742, 394.579L1062.174, 401.028L1057.297, 407.46L1052.128, 413.849L1046.688, 420.169L1040.995, 426.393L1035.068, 432.497L1028.924, 438.453L1022.584, 444.237L1016.066, 449.821L1014.163, 451.413L1012.493, 452.782L1011.032, 453.917L1009.76, 454.806L1008.655, 455.438L1007.697, 455.804L1006.862, 455.891L1006.13, 455.689L1005.479, 455.187L1004.889, 454.374L1004.336, 453.24L1003.8, 451.772L1003.26, 449.96L1002.694, 447.794L1002.079, 445.262L1001.396, 442.353L999.157, 433.673L996.49, 424.847L993.467, 416.044L990.16, 407.429L986.64, 399.171L982.979, 391.437L981.119, 387.818L979.25, 384.394L977.382, 381.183L975.524, 378.208L973.984, 376.414L972.329, 375.313L970.659, 374.872L969.072, 375.057L967.667, 375.836L966.541, 377.176L965.793, 379.044L965.522, 381.408L965.374, 382.958L964.961, 384.555L964.334, 386.12L963.538, 387.576L962.624, 388.844L961.64, 389.847L960.634, 390.506L959.655, 390.743L958.681, 390.519L957.563, 389.853L956.307, 388.753L954.92, 387.226L953.408, 385.28L951.778, 382.923L950.034, 380.163L948.185, 377.007L945.891, 373.226L943.161, 369.343L940.072, 365.44L936.699, 361.604L933.121, 357.917L929.413, 354.465L925.652, 351.331L921.914, 348.601L918.618, 346.208L915.902, 343.886L913.72, 341.566L912.028, 339.183L910.78, 336.668L909.93, 333.955L909.433, 330.976L909.244, 327.664L909.367, 323.901L909.852, 320.167L910.725, 316.388L912.011, 312.494L913.734, 308.413L915.92, 304.072L918.594, 299.399L921.78, 294.324L926.039, 288.289L931.001, 282.099L936.64, 275.774L942.934, 269.336L949.86, 262.803L957.393, 256.197L965.511, 249.539L974.19, 242.847L978.249, 239.795L982.629, 236.509L991.794, 229.645L996.296, 226.274L1000.558, 223.081L1004.438, 220.17L1007.797, 217.643L1011, 215.23L1014.342, 212.646L1021.049, 207.274L1024.218, 204.642L1027.132, 202.152L1029.692, 199.88L1031.801, 197.905"/><path   stroke-width="1" d="M672.531, 204.973L675.682, 202.531L678.532, 200.539L679.751, 199.774L680.783, 199.197L681.589, 198.832L682.133, 198.705L682.695, 198.875L683.554, 199.362L684.67, 200.133L686.001, 201.156L687.507, 202.398L689.147, 203.826L692.669, 207.108L694.715, 209.075L697.285, 211.419L700.276, 214.053L703.588, 216.893L710.766, 222.842L714.43, 225.779L718.007, 228.578L721.705, 231.485L725.155, 234.264L728.369, 236.927L731.358, 239.486L734.133, 241.954L736.707, 244.343L741.295, 248.932L745.214, 253.352L748.557, 257.702L751.415, 262.08L753.881, 266.585L756.028, 271.403L758.031, 276.8L759.835, 282.54L761.382, 288.39L762.617, 294.114L763.483, 299.48L763.76, 301.954L763.924, 304.251L763.967, 306.341L763.883, 308.194L763.393, 311.234L762.539, 313.936L761.194, 316.426L759.232, 318.829L757.98, 320.036L756.526, 321.269L754.854, 322.542L752.949, 323.871L750.795, 325.273L748.375, 326.762L745.675, 328.354L742.678, 330.065L738.031, 332.782L733.591, 335.532L729.355, 338.32L725.321, 341.148L721.484, 344.019L717.844, 346.936L711.139, 352.919L705.184, 359.121L699.958, 365.566L695.438, 372.276L691.602, 379.275L689.504, 383.877L687.795, 388.26L686.452, 392.543L685.451, 396.844L684.768, 401.284L684.382, 405.98L684.267, 411.05L684.4, 416.615L684.934, 429.417L681.2, 429.417L680.24, 429.247L678.982, 428.755L677.453, 427.962L675.682, 426.894L673.699, 425.573L671.532, 424.023L669.211, 422.268L666.763, 420.332L661.607, 416.01L656.295, 411.245L651.057, 406.227L646.126, 401.145L640.552, 394.904L635.478, 388.722L630.898, 382.576L626.805, 376.447L623.194, 370.313L620.058, 364.156L617.391, 357.954L615.187, 351.686L613.438, 345.332L612.14, 338.871L611.286, 332.284L610.869, 325.549L610.884, 318.647L611.323, 311.555L612.182, 304.255L613.453, 296.725L615.028, 289.14L616.725, 282.051L618.577, 275.405L620.621, 269.149L622.89, 263.228L625.418, 257.591L628.24, 252.182L631.39, 246.948L634.903, 241.837L638.812, 236.794L643.153, 231.765L647.96, 226.698L653.266, 221.539L659.108, 216.234L665.518, 210.73L672.531, 204.973"/><path   stroke-width="1" d="M809.625, 268.72L809.625, 268.719L810.826, 268.27L812.292, 267.897L814.008, 267.598L815.959, 267.371L818.129, 267.213L820.501, 267.122L825.792, 267.133L831.708, 267.388L838.123, 267.868L844.912, 268.557L851.95, 269.436L866.27, 271.698L873.302, 273.045L880.082, 274.514L886.485, 276.087L892.385, 277.746L897.658, 279.475L900.019, 280.359L902.177, 281.255L904.842, 282.571L906.846, 283.955L908.203, 285.465L908.927, 287.156L909.032, 289.085L908.533, 291.307L907.443, 293.879L905.777, 296.858L904.12, 299.79L902.572, 303.011L901.168, 306.411L899.943, 309.877L898.93, 313.3L898.163, 316.568L897.678, 319.57L897.509, 322.196L897.482, 323.784L897.374, 325.139L897.145, 326.252L896.755, 327.112L896.163, 327.708L895.329, 328.031L894.213, 328.07L892.775, 327.814L890.974, 327.254L888.77, 326.378L886.124, 325.177L882.994, 323.641L879.34, 321.758L875.123, 319.518L870.302, 316.912L864.836, 313.928L859.318, 310.923L854.3, 308.146L849.754, 305.578L845.657, 303.201L841.982, 300.996L838.702, 298.944L835.794, 297.026L833.229, 295.224L830.984, 293.52L829.031, 291.893L827.346, 290.325L825.903, 288.798L823.637, 285.791L822.027, 282.722L820.836, 280.415L819.65, 278.796L818.448, 277.865L817.21, 277.621L815.915, 278.065L814.544, 279.196L813.077, 281.015L811.492, 283.522L810.648, 284.852L809.643, 286.31L807.307, 289.423L804.796, 292.486L802.423, 295.124L799.804, 297.348L796.601, 299.635L793.042, 301.864L789.354, 303.909L785.766, 305.648L782.507, 306.957L781.072, 307.412L779.804, 307.714L778.732, 307.846L777.885, 307.793L776.941, 307.299L776.112, 306.216L775.398, 304.542L774.801, 302.276L774.323, 299.416L773.966, 295.96L773.73, 291.908L773.618, 287.257L773.602, 284.894L773.666, 282.958L773.827, 281.374L774.101, 280.071L774.507, 278.974L775.062, 278.01L776.685, 276.187L778.279, 274.924L780.163, 273.833L782.337, 272.91L784.803, 272.153L787.563, 271.559L790.619, 271.124L793.971, 270.845L797.622, 270.72L800.904, 270.557L804.274, 270.12L807.319, 269.482L808.59, 269.112L809.625, 268.72"/><path   stroke-width="1" d="M806.157, 306.727L809.949, 304.187L811.699, 303.077L813.292, 302.109L814.685, 301.31L815.834, 300.707L816.696, 300.325L817.226, 300.192L817.774, 300.293L818.689, 300.678L819.922, 301.315L821.427, 302.176L823.157, 303.231L825.065, 304.449L829.229, 307.26L830.41, 308.076L831.84, 309.015L833.5, 310.067L835.369, 311.221L839.658, 313.793L844.548, 316.645L849.882, 319.691L855.502, 322.844L866.969, 329.131L874.51, 333.176L881.498, 337.023L887.963, 340.692L893.933, 344.205L899.437, 347.582L904.505, 350.843L909.164, 354.01L913.445, 357.103L917.375, 360.143L920.985, 363.151L924.302, 366.147L927.356, 369.151L930.175, 372.186L932.789, 375.271L937.516, 381.675L939.219, 384.316L940.609, 386.708L941.664, 388.88L942.359, 390.86L942.669, 392.677L942.571, 394.361L942.039, 395.94L941.05, 397.444L939.581, 398.901L937.605, 400.339L935.1, 401.789L932.04, 403.278L928.403, 404.837L924.163, 406.493L919.296, 408.275L913.778, 410.213L904.035, 413.596L894.727, 416.871L885.844, 420.044L877.376, 423.121L869.314, 426.109L861.647, 429.012L854.364, 431.837L847.457, 434.589L840.915, 437.274L834.727, 439.898L828.884, 442.467L823.376, 444.987L818.193, 447.463L813.324, 449.902L808.76, 452.308L804.49, 454.689L800.505, 457.049L796.794, 459.394L793.348, 461.731L790.155, 464.065L787.207, 466.402L784.493, 468.747L782.003, 471.108L779.727, 473.488L777.655, 475.895L775.777, 478.334L772.562, 483.33L770.003, 488.525L768.017, 493.963L766.86, 498.487L766.087, 503.377L765.696, 508.511L765.683, 513.767L766.045, 519.023L766.779, 524.157L767.882, 529.047L769.351, 533.571L769.987, 535.115L770.782, 536.826L772.774, 540.635L775.176, 544.762L777.836, 548.974L780.601, 553.036L783.322, 556.713L784.618, 558.334L785.846, 559.771L786.986, 560.995L788.021, 561.976L789.133, 563.082L789.963, 564.173L790.506, 565.207L790.755, 566.144L790.704, 566.944L790.346, 567.565L789.676, 567.968L788.687, 568.111L787.797, 567.952L786.597, 567.492L785.119, 566.755L783.394, 565.763L781.454, 564.54L779.329, 563.111L777.051, 561.498L774.651, 559.726L769.611, 555.797L764.457, 551.514L759.442, 547.065L754.814, 542.639L749.377, 536.969L744.245, 531.133L739.389, 525.09L734.777, 518.801L730.377, 512.224L726.158, 505.319L722.09, 498.045L718.14, 490.362L713.136, 479.802L708.738, 469.471L704.966, 459.433L701.837, 449.755L700.52, 445.071L699.371, 440.501L698.392, 436.054L697.586, 431.739L696.955, 427.562L696.502, 423.532L696.228, 419.658L696.136, 415.948L696.449, 408.576L697.411, 401.605L699.062, 394.951L701.437, 388.526L704.575, 382.245L706.442, 379.131L708.514, 376.021L710.795, 372.904L713.29, 369.77L716.004, 366.607L718.941, 363.404L723.441, 358.943L728.336, 354.598L733.772, 350.272L739.895, 345.868L743.258, 343.606L746.848, 341.288L750.682, 338.902L754.779, 336.436L759.155, 333.878L763.831, 331.216L768.824, 328.437L774.151, 325.53L783.728, 320.21L788.451, 317.506L792.955, 314.878L797.109, 312.407L800.781, 310.171L803.841, 308.251L805.1, 307.435L806.157, 306.727"/><path   stroke-width="1" d="M1184.365, 324.197L1187.524, 323.635L1190.462, 323.249L1196.034, 323.013L1198.849, 323.166L1201.806, 323.503L1204.993, 324.023L1208.503, 324.73L1212.98, 325.75L1217.061, 326.885L1220.676, 328.101L1223.756, 329.364L1226.229, 330.64L1228.025, 331.894L1229.075, 333.092L1229.297, 333.659L1229.307, 334.199L1229.124, 335.062L1228.794, 335.805L1228.196, 336.507L1227.206, 337.249L1225.705, 338.109L1223.568, 339.168L1222.224, 339.797L1220.675, 340.505L1218.907, 341.303L1216.904, 342.2L1213.055, 344.218L1209.336, 346.641L1205.793, 349.423L1202.468, 352.519L1199.406, 355.884L1196.65, 359.472L1194.245, 363.239L1192.233, 367.138L1191.401, 369.164L1190.43, 371.768L1189.356, 374.841L1188.215, 378.274L1185.875, 385.78L1183.698, 393.411L1181.855, 399.824L1179.867, 406.024L1177.722, 412.033L1175.407, 417.874L1172.907, 423.567L1170.212, 429.136L1167.306, 434.601L1164.177, 439.986L1160.813, 445.311L1157.199, 450.598L1153.323, 455.87L1149.172, 461.148L1144.733, 466.454L1139.992, 471.811L1134.937, 477.239L1129.554, 482.761L1125.788, 486.517L1122.179, 490.043L1118.711, 493.352L1115.366, 496.457L1112.126, 499.373L1108.974, 502.112L1102.865, 507.116L1096.9, 511.575L1090.94, 515.599L1084.845, 519.294L1078.477, 522.769L1074.38, 524.822L1070.12, 526.775L1061.278, 530.335L1052.293, 533.367L1043.504, 535.788L1039.29, 536.743L1035.253, 537.515L1031.435, 538.092L1027.88, 538.465L1024.63, 538.623L1021.726, 538.556L1019.213, 538.254L1017.132, 537.705L1016.102, 537.368L1014.846, 537.061L1011.847, 536.554L1008.524, 536.223L1005.263, 536.104L1001.725, 535.973L998.862, 535.554L996.599, 534.811L994.861, 533.704L991.794, 531.304L995.394, 522.235L997.092, 517.775L998.674, 513.135L1001.429, 503.548L1003.534, 493.936L1004.303, 489.265L1004.863, 484.761L1005.328, 480.923L1005.88, 477.46L1006.169, 475.986L1006.457, 474.747L1006.736, 473.789L1006.997, 473.159L1007.494, 472.524L1008.449, 471.55L1009.807, 470.29L1011.514, 468.791L1013.515, 467.106L1015.755, 465.282L1020.733, 461.423L1023.504, 459.269L1026.55, 456.766L1029.772, 454.004L1033.068, 451.071L1039.486, 445.051L1042.408, 442.142L1045.004, 439.419L1049.063, 435.123L1052.847, 431.43L1056.369, 428.331L1059.64, 425.817L1062.674, 423.877L1065.483, 422.504L1068.079, 421.686L1070.476, 421.416L1071.241, 421.301L1072.397, 420.974L1073.884, 420.459L1075.643, 419.782L1077.615, 418.967L1079.74, 418.04L1084.212, 415.948L1089.699, 412.892L1095.125, 409.259L1100.591, 404.944L1103.371, 402.499L1106.2, 399.845L1109.089, 396.968L1112.052, 393.857L1115.101, 390.499L1118.25, 386.88L1121.51, 382.987L1124.895, 378.808L1128.416, 374.33L1132.088, 369.539L1136.458, 363.899L1140.581, 358.719L1144.477, 353.98L1148.17, 349.664L1151.68, 345.753L1155.028, 342.229L1158.237, 339.072L1161.327, 336.266L1164.32, 333.79L1167.238, 331.628L1170.102, 329.76L1172.933, 328.168L1175.754, 326.835L1178.585, 325.74L1181.448, 324.867L1184.365, 324.197"/><path   stroke-width="1" d="M506.766, 340.733L507.637, 339.865L508.556, 339.262L509.534, 338.928L510.583, 338.866L511.713, 339.08L512.936, 339.571L514.261, 340.343L515.701, 341.4L517.908, 342.836L520.806, 344.238L524.36, 345.596L528.537, 346.901L533.3, 348.143L538.618, 349.314L544.454, 350.403L550.774, 351.402L557.098, 352.394L562.933, 353.488L568.377, 354.71L573.529, 356.086L578.487, 357.644L583.349, 359.41L588.215, 361.41L593.183, 363.671L597.438, 365.856L601.372, 368.274L605.086, 371.02L608.685, 374.19L612.272, 377.878L615.949, 382.181L617.854, 384.592L619.821, 387.193L621.861, 389.995L623.989, 393.01L626.064, 395.944L628.327, 398.938L633.368, 405.048L638.999, 411.236L645.11, 417.398L651.589, 423.429L658.327, 429.223L665.211, 434.677L672.131, 439.686L677.768, 443.739L680.362, 445.722L682.717, 447.604L684.765, 449.33L686.44, 450.845L687.675, 452.094L688.401, 453.022L688.952, 454.097L689.685, 455.672L690.567, 457.673L691.568, 460.023L692.657, 462.649L693.802, 465.474L696.136, 471.425L700.245, 481.657L704.852, 491.719L709.932, 501.565L715.456, 511.15L721.4, 520.428L727.736, 529.355L734.437, 537.885L741.478, 545.973L743.412, 548.137L745.116, 550.087L746.594, 551.837L747.85, 553.402L748.889, 554.795L749.715, 556.032L750.333, 557.126L750.746, 558.092L750.96, 558.944L750.977, 559.696L750.803, 560.362L750.442, 560.957L749.176, 561.99L747.213, 562.909L746.27, 563.185L745.098, 563.388L743.708, 563.522L742.109, 563.586L740.313, 563.584L738.329, 563.518L733.839, 563.199L728.723, 562.645L723.063, 561.871L716.94, 560.893L710.439, 559.726L703.64, 558.385L696.627, 556.886L682.287, 553.477L668.079, 549.62L661.23, 547.562L654.661, 545.439L651.013, 544.2L647.559, 542.976L641.15, 540.534L635.279, 538.037L629.79, 535.405L624.525, 532.56L619.329, 529.424L614.046, 525.92L608.519, 521.969L598.485, 514.211L589.028, 506.377L580.134, 498.446L571.789, 490.398L563.979, 482.214L556.691, 473.873L549.91, 465.355L543.623, 456.639L537.815, 447.707L532.474, 438.537L527.585, 429.11L523.133, 419.405L519.107, 409.402L515.49, 399.082L512.27, 388.423L509.433, 377.407L508.23, 371.581L507.235, 365.657L506.468, 359.86L505.949, 354.419L505.699, 349.559L505.682, 347.418L505.739, 345.507L505.873, 343.854L506.088, 342.489L506.384, 341.439L506.766, 340.733"/><path   stroke-width="1" d="M964.855, 400.878L966.648, 399.661L968.275, 399.044L969.804, 399.078L971.307, 399.811L972.853, 401.295L973.665, 402.334L974.514, 403.579L975.409, 405.037L976.358, 406.713L977.372, 408.614L978.458, 410.747L982.247, 419.129L985.463, 427.685L988.109, 436.362L990.187, 445.106L991.701, 453.863L992.652, 462.58L993.043, 471.202L992.877, 479.677L992.156, 487.95L990.883, 495.968L989.061, 503.677L986.691, 511.023L983.776, 517.952L980.319, 524.412L976.323, 530.347L974.124, 533.102L971.79, 535.705L968.316, 539.133L964.467, 542.505L960.274, 545.806L955.768, 549.022L950.98, 552.137L945.94, 555.136L940.681, 558.004L935.233, 560.726L929.627, 563.287L923.894, 565.673L918.065, 567.867L912.172, 569.855L906.245, 571.622L900.316, 573.153L894.415, 574.433L888.574, 575.446L882.861, 576.212L877.23, 576.761L871.687, 577.097L866.239, 577.224L860.892, 577.147L855.652, 576.868L850.526, 576.391L845.521, 575.721L840.644, 574.861L835.9, 573.815L831.296, 572.586L826.839, 571.179L822.535, 569.598L818.391, 567.846L814.413, 565.926L810.608, 563.844L806.983, 561.602L803.543, 559.204L800.295, 556.655L797.247, 553.957L794.404, 551.116L791.773, 548.134L789.36, 545.015L787.172, 541.764L785.216, 538.384L783.498, 534.879L782.024, 531.252L780.802, 527.508L779.837, 523.65L779.136, 519.683L778.705, 515.609L778.552, 511.433L778.794, 505.274L779.636, 499.566L781.102, 494.262L783.219, 489.312L786.011, 484.669L789.504, 480.284L793.721, 476.108L798.689, 472.093L801.874, 469.879L805.706, 467.497L810.154, 464.961L815.188, 462.284L820.777, 459.48L826.89, 456.562L833.496, 453.544L840.564, 450.438L848.064, 447.259L855.964, 444.02L864.233, 440.735L872.842, 437.417L881.758, 434.079L890.951, 430.735L900.39, 427.399L910.045, 424.083L915.333, 422.277L920.391, 420.51L925.217, 418.784L929.805, 417.101L934.151, 415.462L938.252, 413.869L942.104, 412.325L945.701, 410.831L949.041, 409.388L952.119, 407.998L954.931, 406.663L957.472, 405.386L959.74, 404.166L961.729, 403.008L963.435, 401.911L964.855, 400.878"/></svg>