<?xml version="1.0" standalone="no"?>
<!DOCTYPE svg PUBLIC "-//W3C//DTD SVG 20010904//EN"
 "http://www.w3.org/TR/2001/REC-SVG-20010904/DTD/svg10.dtd">
<svg version="1.0" xmlns="http://www.w3.org/2000/svg"
 width="1280.000000pt" height="1280.000000pt" viewBox="0 0 1280.000000 1280.000000"
 preserveAspectRatio="xMidYMid meet">
<metadata>
Created by potrace 1.15, written by Peter Selinger 2001-2017
</metadata>
<g transform="translate(0.000000,1280.000000) scale(0.100000,-0.100000)"
fill="#000000" stroke="none">
<path d="M6123 12122 c-103 -83 -203 -211 -270 -349 -25 -51 -47 -111 -50
-133 -7 -49 9 -72 147 -215 53 -55 120 -129 149 -163 86 -105 141 -236 141
-333 0 -27 6 -51 14 -58 16 -14 173 -37 183 -27 4 4 10 55 13 114 5 97 9 113
39 169 39 73 92 130 214 231 71 60 87 78 87 101 0 50 -55 109 -348 379 -113
105 -181 188 -223 275 -13 26 -28 47 -35 47 -7 0 -34 -17 -61 -38z"/>
<path d="M5380 11901 c-173 -122 -334 -304 -430 -486 -29 -54 -40 -125 -21
-125 23 0 82 63 178 190 2 2 16 -11 31 -30 59 -79 185 -199 317 -305 156 -126
202 -171 260 -262 51 -79 77 -91 142 -68 27 10 94 20 153 24 l104 6 24 35 c60
88 -17 226 -291 524 -178 193 -249 288 -304 406 -25 52 -48 102 -52 110 -14
28 -54 21 -111 -19z"/>
<path d="M4785 11753 c-120 -119 -321 -506 -383 -738 -24 -91 -27 -116 -26
-280 0 -156 4 -198 28 -313 34 -168 64 -255 90 -260 18 -4 19 0 10 74 -35 307
47 634 208 834 61 76 81 119 108 233 24 106 40 144 80 200 l31 43 -35 66 c-19
36 -40 91 -47 122 -7 31 -15 56 -19 56 -4 0 -24 -17 -45 -37z"/>
<path d="M8465 11735 c-188 -30 -373 -125 -503 -258 l-43 -44 67 -99 c170
-249 304 -660 304 -930 0 -178 -69 -386 -192 -582 -22 -34 -38 -66 -35 -69 18
-17 70 19 166 115 117 117 285 328 325 407 40 78 67 260 68 445 1 180 -15 270
-69 400 -83 201 -81 351 6 524 56 111 52 115 -94 91z"/>
<path d="M7717 11643 c-4 -3 -7 -24 -7 -45 0 -21 -9 -55 -20 -75 -34 -64 -23
-126 19 -103 30 15 41 49 41 123 l1 62 64 -67 c68 -72 91 -81 120 -48 24 26
15 36 -98 104 -92 56 -108 62 -120 49z"/>
<path d="M7003 11544 c-21 -25 -101 -97 -178 -159 -77 -61 -168 -142 -202
-178 -104 -112 -153 -241 -120 -320 19 -45 59 -70 146 -92 36 -9 101 -32 143
-52 l78 -36 133 129 c73 71 149 140 170 154 51 34 71 80 64 146 -6 59 -79 285
-125 387 -38 83 -55 86 -109 21z"/>
<path d="M3427 11537 c-3 -7 17 -62 44 -123 92 -207 127 -399 115 -633 -11
-233 27 -508 86 -630 28 -59 32 -63 44 -46 18 25 18 59 -2 97 -14 28 -14 36
-1 87 8 31 18 73 22 94 3 20 8 37 10 37 2 0 38 -22 80 -49 42 -28 102 -60 133
-71 48 -19 381 -85 388 -77 5 6 -54 335 -64 353 -6 12 -10 43 -10 70 1 29 -6
65 -17 87 -29 63 -269 343 -434 507 -146 146 -345 310 -375 310 -8 0 -16 -6
-19 -13z"/>
<path d="M7312 11508 c-7 -7 -12 -25 -12 -41 0 -15 -5 -37 -10 -48 -19 -35
-28 -112 -20 -168 13 -92 29 -141 46 -141 9 0 44 22 78 49 33 26 80 60 104 75
33 21 42 32 42 54 0 38 -46 106 -119 175 -59 57 -86 68 -109 45z"/>
<path d="M7737 11316 c-37 -36 -118 -102 -180 -148 -61 -46 -175 -131 -252
-189 -179 -134 -315 -267 -393 -386 -69 -106 -95 -174 -94 -250 1 -70 23 -108
95 -157 74 -50 156 -139 197 -213 38 -67 68 -103 86 -103 19 0 44 40 44 70 0
52 46 67 75 24 74 -114 154 -310 194 -481 29 -124 29 -124 110 -56 264 219
477 510 543 740 19 67 23 102 22 248 0 126 -4 192 -18 255 -29 137 -84 297
-143 415 -66 134 -172 289 -199 292 -12 2 -45 -22 -87 -61z"/>
<path d="M5043 11263 c-293 -236 -382 -374 -443 -688 -59 -306 12 -532 245
-783 94 -101 231 -212 263 -212 l28 0 -4 96 c-5 117 8 185 54 280 70 143 193
261 383 369 126 71 152 99 159 164 6 69 -31 223 -75 312 -46 92 -116 166 -269
285 -70 54 -155 126 -190 161 -36 35 -71 63 -79 63 -8 0 -40 -21 -72 -47z"/>
<path d="M6071 10785 c-18 -8 -59 -15 -90 -15 -76 -1 -128 -14 -157 -41 -20
-19 -24 -31 -23 -83 1 -99 12 -150 32 -154 29 -6 139 52 184 95 22 23 53 62
68 87 33 57 55 59 79 6 27 -63 90 -109 321 -234 232 -127 245 -130 245 -62 0
48 28 135 62 190 39 64 33 91 -27 117 -164 72 -609 133 -694 94z"/>
<path d="M6045 10500 c-38 -26 -146 -90 -240 -141 -220 -119 -327 -193 -414
-284 -122 -129 -171 -242 -171 -394 0 -145 59 -345 165 -558 78 -158 163 -280
275 -392 87 -87 225 -191 254 -191 23 0 20 24 -5 46 -39 34 -118 155 -140 213
-33 86 -37 211 -10 297 69 223 296 353 1093 628 234 81 252 103 178 214 -89
132 -216 228 -529 394 -113 61 -241 134 -283 164 -43 30 -83 54 -90 53 -7 0
-44 -22 -83 -49z"/>
<path d="M8881 10369 c-118 -23 -212 -105 -392 -340 -150 -198 -248 -292 -359
-348 -45 -22 -92 -41 -103 -41 -46 0 -107 -43 -191 -135 -48 -52 -130 -126
-182 -165 -52 -39 -98 -79 -103 -88 -5 -9 -12 -48 -16 -87 -9 -88 -36 -194
-71 -281 l-27 -68 23 -18 c15 -13 39 -18 78 -18 31 0 71 -5 89 -12 74 -27 300
28 460 112 131 68 229 145 383 300 222 223 335 409 406 670 20 74 49 163 64
197 36 79 107 151 185 187 85 38 90 41 93 60 4 21 -63 52 -156 71 -74 16 -115
17 -181 4z"/>
<path d="M3800 10245 c-17 -21 -6 -161 20 -275 106 -448 330 -775 743 -1084
114 -84 196 -126 346 -176 256 -86 628 -156 694 -131 46 18 39 36 -43 127
-144 157 -263 353 -340 559 -23 60 -49 122 -58 138 -9 15 -64 60 -122 100
-138 95 -282 234 -361 350 -87 125 -142 178 -231 220 -101 48 -186 73 -318 92
-131 19 -226 46 -263 75 -30 24 -50 25 -67 5z"/>
<path d="M7235 9794 c-51 -40 -195 -101 -411 -174 -390 -132 -721 -275 -835
-360 -107 -79 -152 -167 -151 -295 1 -338 365 -550 825 -480 232 35 493 160
624 298 192 202 213 606 50 937 -45 90 -64 104 -102 74z"/>
<path d="M6179 8266 c-136 -107 -282 -291 -366 -460 l-40 -78 -41 48 c-50 58
-103 157 -128 238 -21 66 -48 90 -100 89 -48 -1 -67 -16 -294 -217 -111 -98
-204 -176 -207 -173 -3 3 -11 81 -19 174 -8 92 -15 172 -17 177 -4 12 -157
-161 -243 -276 -101 -136 -177 -261 -255 -423 -66 -137 -162 -400 -175 -483
-7 -42 -17 -54 -27 -29 -13 32 -183 235 -291 346 -130 132 -261 246 -394 343
-96 69 -284 189 -290 184 -2 -2 20 -45 48 -95 107 -189 176 -371 200 -521 6
-41 15 -205 20 -365 10 -307 15 -351 55 -489 69 -237 282 -708 403 -891 229
-344 592 -618 999 -751 200 -65 389 -93 648 -94 77 0 156 -4 175 -9 297 -73
438 -97 620 -107 286 -16 598 74 777 224 92 76 92 76 353 83 246 7 309 15 448
63 191 65 359 172 512 326 186 186 303 378 429 708 38 100 85 205 104 234 74
115 186 186 342 217 47 9 85 19 85 23 0 14 -114 98 -180 133 -36 18 -102 44
-145 56 -142 39 -353 27 -458 -28 l-30 -15 6 38 c42 263 27 451 -55 701 -40
121 -42 134 -43 248 0 132 7 161 77 318 22 49 37 92 33 95 -4 4 -59 7 -123 6
-171 -1 -314 -43 -450 -131 -100 -65 -134 -56 -343 94 -68 49 -139 99 -158
113 l-34 24 7 -52 c16 -122 26 -324 20 -409 l-7 -92 -37 57 c-20 31 -62 80
-94 109 -60 55 -176 119 -199 110 -8 -3 -19 -36 -27 -81 -7 -42 -17 -79 -22
-82 -10 -7 -67 116 -109 237 l-31 89 -34 -70 c-35 -73 -100 -152 -145 -175
-25 -14 -29 -12 -125 69 -184 155 -355 345 -495 552 l-75 113 -55 -43z m71
-208 c32 -50 90 -113 200 -217 287 -270 340 -331 340 -385 0 -8 -34 -40 -75
-71 -121 -91 -195 -190 -241 -325 -18 -52 -22 -76 -15 -83 19 -19 12 -47 -15
-57 -14 -6 -47 -10 -73 -10 -62 0 -86 25 -95 99 -17 129 -82 236 -253 413
-168 173 -180 205 -117 331 74 147 253 376 294 376 3 0 25 -32 50 -71z m-742
-110 c5 -7 20 -38 32 -68 42 -100 145 -242 300 -410 182 -198 247 -281 300
-384 43 -84 51 -134 23 -158 -21 -18 -332 -73 -360 -64 -10 3 -29 26 -42 50
-39 74 -124 160 -285 285 -160 126 -233 196 -285 274 -18 26 -34 47 -37 47
-18 0 -45 -25 -67 -63 -14 -24 -47 -63 -74 -88 l-48 -44 -3 27 c-5 46 93 212
204 343 90 105 282 265 319 265 7 0 17 -6 23 -12z m-605 -258 c20 -49 37 -95
37 -102 0 -7 -18 -50 -41 -96 -22 -45 -51 -125 -64 -177 -28 -109 -39 -133
-110 -235 -89 -127 -157 -280 -184 -412 -29 -142 -32 -338 -6 -447 5 -21 4
-23 -8 -12 -29 24 -58 114 -83 258 -46 274 -43 449 12 611 32 97 147 325 225
451 72 114 169 251 179 251 4 0 23 -40 43 -90z m2952 -36 c82 -49 107 -82 85
-109 -21 -25 -41 -17 -90 36 -27 30 -52 49 -59 45 -6 -4 -11 -33 -11 -64 0
-38 -6 -66 -17 -82 -45 -66 -53 -50 -53 99 0 141 7 162 47 136 12 -8 57 -36
98 -61z m692 55 c8 -8 3 -28 -18 -73 -61 -130 -62 -299 -4 -436 57 -135 76
-218 82 -355 7 -150 -12 -396 -33 -437 -8 -15 -14 -44 -14 -65 0 -21 -11 -60
-24 -88 -27 -58 -153 -223 -235 -309 -58 -61 -170 -150 -179 -142 -2 3 12 32
32 65 151 248 196 448 162 726 -33 279 -118 510 -273 744 l-56 83 16 33 c55
115 483 315 544 254z m-1379 -236 c29 -73 64 -180 77 -239 22 -100 23 -110 9
-138 -24 -49 -319 -310 -353 -314 -28 -3 -295 89 -328 114 -15 10 -18 27 -18
91 0 145 63 232 297 414 70 54 148 124 175 154 70 82 77 78 141 -82z m276 -17
c54 -60 101 -146 90 -164 -16 -26 -175 -143 -188 -139 -11 4 -20 39 -32 123
-5 33 0 52 25 102 17 34 31 70 31 80 0 44 33 43 74 -2z m-3584 -306 c158 -157
348 -374 408 -465 21 -32 37 -84 66 -218 20 -97 35 -181 31 -187 -10 -16 -65
-12 -192 14 -180 37 -296 87 -357 155 -23 25 -43 27 -68 4 -14 -13 -18 -31
-18 -87 0 -71 -13 -117 -24 -86 -17 48 -38 301 -46 554 -10 321 -22 403 -86
571 -12 31 101 -69 286 -255z m4081 148 c118 -178 206 -385 246 -584 25 -126
25 -422 0 -514 -54 -198 -213 -430 -454 -660 -81 -77 -122 -110 -136 -108 -17
2 -25 22 -48 108 -15 58 -41 141 -59 185 -44 111 -151 316 -168 323 -26 10
-47 -14 -55 -64 -16 -92 -43 -97 -87 -16 -43 82 -113 163 -197 230 -107 85
-118 103 -118 187 0 124 73 252 232 406 104 101 760 612 774 603 4 -2 36 -46
70 -96z m-2636 -99 c301 -242 379 -327 410 -444 22 -85 30 -263 13 -294 -7
-13 -59 -52 -115 -86 -209 -129 -324 -239 -396 -383 -52 -103 -71 -195 -65
-308 2 -41 0 -74 -3 -74 -25 0 -144 98 -240 197 -130 134 -186 214 -230 326
-127 329 -29 737 246 1020 72 74 191 167 215 167 9 0 83 -54 165 -121z m1130
-415 c66 -8 152 -22 190 -30 90 -19 191 -66 200 -93 4 -13 -7 -46 -31 -96 -22
-45 -39 -98 -43 -130 -3 -31 -9 -55 -14 -55 -12 0 -265 128 -352 178 -95 55
-177 133 -194 185 -7 21 -18 36 -24 34 -7 -2 -33 -34 -58 -72 -46 -70 -79 -98
-161 -141 -63 -32 -76 -30 -94 11 -14 35 -19 120 -8 150 11 28 60 45 127 45
36 0 80 7 98 15 46 19 212 19 364 -1z m-168 -278 c54 -35 180 -107 281 -160
212 -111 306 -172 398 -258 68 -64 136 -155 146 -196 4 -13 0 -30 -10 -42 -11
-12 -172 -76 -417 -165 -579 -212 -704 -279 -815 -438 -119 -169 -118 -335 4
-531 25 -39 54 -80 65 -90 38 -35 22 -37 -41 -5 -87 43 -252 210 -344 349
-171 257 -281 579 -272 796 3 81 8 100 40 165 44 88 122 178 217 248 50 37
629 386 648 390 1 1 46 -28 100 -63z m2898 -137 c44 -18 61 -31 63 -47 3 -17
-4 -23 -39 -32 -88 -24 -165 -95 -220 -202 -16 -31 -44 -112 -63 -180 -45
-158 -67 -221 -101 -288 -45 -90 -138 -218 -242 -334 -271 -304 -536 -457
-818 -473 -94 -5 -224 8 -253 26 -9 5 -4 26 19 79 34 82 59 198 59 275 l0 52
92 89 c135 129 278 255 320 283 20 14 78 43 130 65 166 72 237 134 408 359
174 230 234 288 347 335 78 33 208 30 298 -7z m-5265 -119 c28 -11 138 -38
244 -59 329 -67 418 -114 537 -284 94 -133 246 -283 381 -376 60 -40 117 -87
127 -105 11 -17 37 -78 59 -136 82 -220 193 -404 331 -552 45 -47 81 -91 81
-97 0 -34 -249 -17 -440 29 -198 49 -444 139 -551 203 -76 45 -210 157 -325
272 -303 303 -476 658 -500 1024 -4 56 -4 101 -1 101 3 0 29 -9 57 -20z m3457
-495 c126 -236 147 -597 48 -812 -72 -158 -404 -364 -675 -418 -64 -13 -116
-16 -220 -12 -158 5 -227 21 -360 84 -116 54 -169 106 -231 229 -37 74 -44 97
-47 159 -4 62 0 82 21 128 47 102 141 184 318 274 126 65 231 107 549 218 246
85 450 166 510 200 39 22 53 15 87 -50z"/>
<path d="M6135 4268 c-167 -158 -295 -359 -295 -464 0 -81 25 -71 99 38 39 59
100 101 175 123 122 36 207 -1 471 -200 99 -75 192 -143 207 -151 31 -16 71
-19 66 -5 -1 6 -107 118 -235 249 -128 132 -253 264 -279 293 -46 55 -104 156
-104 184 0 27 -17 16 -105 -67z"/>
<path d="M4933 4088 c-44 -49 -209 -275 -284 -391 -231 -351 -335 -695 -300
-984 14 -116 56 -262 82 -288 l20 -20 -6 70 c-4 39 -2 136 4 216 24 324 93
589 222 859 70 146 99 187 146 207 47 19 86 9 127 -33 l33 -34 6 67 c9 86 9
316 1 337 -9 22 -27 20 -51 -6z"/>
<path d="M5415 4062 c-148 -88 -200 -126 -281 -207 -66 -66 -89 -98 -127 -175
-45 -92 -82 -225 -75 -270 3 -19 5 -20 25 -5 12 8 43 52 70 97 65 109 147 192
231 231 59 28 77 32 147 31 142 -2 255 -63 415 -224 110 -110 215 -247 332
-433 l83 -131 3 49 c5 73 -38 198 -99 289 -52 79 -128 159 -320 341 -161 153
-239 264 -279 395 -9 30 -23 56 -31 58 -8 1 -50 -19 -94 -46z"/>
<path d="M7498 4023 c-27 -31 -85 -155 -112 -243 -33 -103 -56 -248 -56 -350
0 -129 15 -125 82 21 56 120 137 186 257 209 61 11 66 10 75 -26 12 -48 -38
-129 -143 -234 -76 -75 -140 -125 -305 -234 -287 -190 -389 -295 -446 -460
-23 -64 -31 -169 -14 -186 8 -8 22 13 53 76 57 119 113 195 218 294 98 93 158
132 285 188 78 35 89 37 188 37 105 0 106 0 200 -46 183 -88 258 -211 276
-448 22 -290 -83 -649 -272 -932 -63 -94 -74 -119 -54 -119 20 0 243 226 307
310 269 355 304 798 98 1228 -57 118 -163 301 -224 387 -61 85 -132 155 -223
217 -78 54 -91 67 -119 123 -27 56 -30 71 -27 132 2 55 0 68 -13 71 -8 1 -22
-5 -31 -15z"/>
<path d="M8407 3864 c-134 -24 -290 -100 -397 -192 -35 -30 -50 -51 -50 -68 0
-24 1 -24 30 -9 109 56 264 32 365 -56 91 -80 172 -368 195 -693 8 -120 13
-148 37 -195 l27 -56 9 40 c5 22 6 128 4 235 -4 150 -11 229 -31 340 -55 304
-57 364 -16 473 15 41 36 69 76 106 29 27 54 56 54 64 0 29 -169 35 -303 11z"/>
<path d="M7045 3773 c-22 -30 -127 -140 -233 -242 -291 -279 -362 -375 -362
-485 0 -81 13 -85 44 -14 63 149 209 330 320 397 71 42 154 63 212 52 60 -11
128 -54 161 -102 96 -139 117 -157 107 -87 -12 82 -54 240 -84 312 -25 60
-116 226 -123 226 -1 0 -20 -26 -42 -57z"/>
<path d="M3399 3699 c74 -131 138 -262 165 -339 50 -138 56 -188 54 -472 -2
-207 2 -288 16 -378 22 -145 40 -212 65 -234 19 -18 20 -17 27 8 4 16 0 44 -9
69 -19 51 -37 205 -44 389 -6 161 10 251 61 326 35 53 101 92 153 92 57 0 138
-35 251 -109 60 -39 114 -71 121 -71 29 0 -31 69 -206 237 -298 286 -443 403
-657 533 l-38 23 41 -74z"/>
<path d="M5103 3448 c-238 -201 -353 -333 -437 -503 -76 -154 -90 -217 -90
-395 1 -80 5 -158 11 -175 9 -28 11 -23 32 65 70 290 178 506 320 643 126 122
257 161 397 119 169 -52 296 -170 415 -389 41 -76 54 -70 54 25 0 135 -72 229
-285 372 -150 101 -227 175 -269 258 -17 34 -35 62 -40 62 -6 0 -54 -37 -108
-82z"/>
<path d="M6170 2963 c-137 -13 -284 -54 -299 -81 -5 -10 -6 -24 -2 -31 7 -10
30 -9 117 5 163 28 474 25 654 -5 222 -37 211 -36 204 -17 -11 28 -74 53 -214
86 -186 43 -330 56 -460 43z"/>
<path d="M5954 2724 c-433 -279 -636 -472 -728 -691 -56 -135 -71 -285 -40
-407 31 -125 190 -409 297 -531 31 -35 36 -38 43 -21 5 13 -7 47 -38 110 -92
184 -124 330 -115 531 7 148 20 205 75 319 94 192 279 342 503 406 103 30 285
37 404 17 208 -37 399 -126 560 -262 36 -31 69 -54 72 -51 45 45 -234 291
-612 538 -185 121 -215 138 -248 138 -14 0 -89 -42 -173 -96z"/>
<path d="M9005 2619 c-148 -18 -388 -136 -543 -268 -119 -100 -253 -309 -296
-460 -19 -64 -30 -70 143 77 211 178 311 232 431 232 83 0 100 -18 100 -104 0
-176 -138 -417 -383 -673 -187 -195 -395 -349 -634 -471 -66 -34 -126 -68
-133 -77 -11 -13 -6 -15 42 -15 122 0 322 52 453 117 163 81 344 240 440 383
27 41 120 224 206 405 169 356 212 436 267 497 74 82 173 130 209 102 26 -19
31 -17 38 15 16 73 -55 182 -142 218 -58 25 -118 31 -198 22z"/>
<path d="M3834 2495 c-11 -29 4 -396 21 -505 85 -556 301 -898 690 -1092 152
-77 329 -131 653 -203 166 -37 197 -40 197 -16 0 8 -34 24 -90 40 -453 137
-900 473 -1079 811 -69 131 -99 243 -98 371 0 115 9 144 59 190 116 108 269
84 495 -78 84 -60 267 -233 331 -313 l37 -45 0 35 c0 68 -124 256 -254 385
-155 154 -289 222 -551 281 -204 45 -274 68 -336 110 -29 19 -56 37 -61 40 -4
3 -11 -2 -14 -11z"/>
<path d="M9315 2320 c-3 -5 -1 -10 4 -10 6 0 11 5 11 10 0 6 -2 10 -4 10 -3 0
-8 -4 -11 -10z"/>
<path d="M7261 2074 c-112 -119 -250 -183 -600 -279 -219 -60 -320 -96 -444
-160 -379 -192 -495 -427 -368 -742 28 -70 69 -135 81 -128 15 9 12 51 -4 64
-23 19 -29 99 -12 177 55 265 321 513 689 643 258 91 418 100 563 31 229 -110
249 -394 54 -806 -27 -59 -48 -109 -46 -112 3 -2 22 2 43 8 112 37 214 171
258 339 65 253 15 671 -113 931 -32 66 -62 76 -101 34z"/>
<path d="M5435 650 c3 -5 15 -10 26 -10 10 0 19 5 19 10 0 6 -12 10 -26 10
-14 0 -23 -4 -19 -10z"/>
</g>
</svg>
